<svg width="250" height="250" viewBox="0 0 250 250" fill="none" xmlns="http://www.w3.org/2000/svg">
	<path d="M103.4 144.3V189.8L41.4 158.8H0V76.5L103.4 144.3Z"/>
	<path d="M103.4 45V91.5L63.2 65.1L103.4 45Z"/>
	<path d="M152.6 83.9V123.7L136.4 113.1L120.1 102.4V83.9H152.6Z"/>
	<path d="M201.3 64.5V155.7L185.1 145L168.8 134.4V64.5H201.3Z"/>
	<path d="M250 45V187.6L233.8 177L217.5 166.3V45H250Z"/>
	<path d="M250 205.1H217.5L145.2 157.7L144.9 157.5L128.7 146.9L112 135.9L0 62.4L32.7 45L71.7 70.7L112 97.1L128.7 108L144.9 118.7L161.1 129.3L177.4 140L193.6 150.6L209.8 161.3L226.1 171.9L242.3 182.5L250 187.6V205.1Z"/>
</svg>
