<svg xmlns="http://www.w3.org/2000/svg" style="display: none;">
  
  <symbol id="question-mark" viewBox="0 0 60 60">
    <path d="M18 23.6296H26V18H34V26.2963H26V39.6296H34V34.2963H42V10H18V23.6296Z"/>
    <path d="M34 42H26V50H34V42Z"/>
  </symbol>
  
  <symbol id="music-note" viewBox="0 0 25 25">
    <path d="M19.9813 0H9.98134H5V7.48134V14.9813H0V22.4627H5H9.98134V14.9813V7.48134H19.9813V17.4813H14.9813V24.9627H19.9813H24.9627V17.4813V7.48134V0H19.9813Z"/>
  </symbol>

  <symbol id="pause-icon" viewBox="0 0 60 60">
    <g clip-path="url(#clip0)">
    <rect x="15" y="10" width="12.0588" height="40"/>
    <rect x="32.9412" y="10" width="12.0588" height="40"/>
    </g>
    <defs>
    <clipPath id="clip0">
    <rect width="30" height="40" transform="translate(15 10)"/>
    </clipPath>
    </defs>
  </symbol>

  <symbol id="volume-icon" viewBox="0 0 36 22">
    <path d="M6.36667 4.71194H0V17.2552H6.36667L15.9333 21.9672V0L6.36667 4.71194Z"/>
    <path d="M22.6 5.5H18.1333V16.4836H22.6V5.5Z" />
    <path d="M29.2833 2.74182H24.8167V19.2254H29.2833V2.74182Z"/>
    <path d="M35.9667 0H31.5V21.9672H35.9667V0Z"/>
  </symbol>
  
  <symbol id="no-volume-icon" viewBox="0 0 250 250">
    <path d="M103.4 144.3V189.8L41.4 158.8H0V76.5L103.4 144.3Z"/>
	<path d="M103.4 45V91.5L63.2 65.1L103.4 45Z"/>
	<path d="M152.6 83.9V123.7L136.4 113.1L120.1 102.4V83.9H152.6Z"/>
	<path d="M201.3 64.5V155.7L185.1 145L168.8 134.4V64.5H201.3Z"/>
	<path d="M250 45V187.6L233.8 177L217.5 166.3V45H250Z"/>
	<path d="M250 205.1H217.5L145.2 157.7L144.9 157.5L128.7 146.9L112 135.9L0 62.4L32.7 45L71.7 70.7L112 97.1L128.7 108L144.9 118.7L161.1 129.3L177.4 140L193.6 150.6L209.8 161.3L226.1 171.9L242.3 182.5L250 187.6V205.1Z"/>
  </symbol>
  
  <symbol id="heart" viewBox="0 0 13.948135 11.892736">
	<path d="m 3.6844148,8.9068034 c -4.00686499,-3.85432 -3.98952899,-3.81162 -2.650092,-6.52785 l 0.855638,-1.73514992 1.856341,0.0765 1.856342,0.0765 0.836116,1.57457992 0.836116,1.57459 0.874318,-1.77302 0.874317,-1.77302992 h 1.7759002 1.7759 l 0.706492,1.52135992 c 0.388571,0.83674 0.771629,1.97877 0.851241,2.53783 0.143364,1.00675 0.112153,1.04914 -3.262967,4.43177 -1.8742432,1.8784096 -3.4689642,3.4091996 -3.5438242,3.4017496 -0.07486,-0.007 -1.713687,-1.53106 -3.641838,-3.3858096 z"/>
  </symbol>
  

  
</svg>