<svg xmlns="http://www.w3.org/2000/svg" viewBox="0 0 644.28 642.74"><defs><style>.cls-1{fill:#893643;}.cls-2{fill:#bf4e30;}.cls-3{fill:#d66d55;}</style></defs><title>Forgetful Frog</title><g id="C_Down" data-name="C Down"><path class="cls-1" d="M635,211.68H432.6V7.7L423.36,0H220.92V219.38H0v204l9.24,7.7H211.68V635l9.24,7.7H432.6V431.06H644.28V219.38ZM122,358.81,54.65,319.92,122,281ZM318.38,585l-38.89-67.36h77.78ZM281.7,122l38.88-67.35L359.47,122ZM513,356.39V278.62l67.35,38.89Z"/><path class="cls-2" d="M423.25,423.36a149.58,149.58,0,0,1-211.46,0h-.11V635.05H423.36V423.36ZM317.16,592.69,269.41,510h95.52Z"/><path class="cls-3" d="M423.36,211.68V0H211.68V211.68H0V423.36H211.79a149.58,149.58,0,0,0,211.46,0H635V211.68ZM125.08,364.94,42.35,317.19l82.73-47.77ZM317.16,42.36l47.77,82.73H269.41Zm187,322.58V269.42l82.73,47.77Z"/></g></svg>