<svg xmlns="http://www.w3.org/2000/svg" viewBox="0 0 644.28 642.74"><defs><style>.cls-1{fill:#893643;}.cls-2{fill:#bf4e30;}.cls-3{fill:#d66d55;}</style></defs><title>Forgetful Frog</title><g id="C_Left" data-name="C Left"><path class="cls-1" d="M635,211.68H432.6V7.7L423.36,0H220.92V219.38H0v204l9.24,7.7H211.68V635l9.24,7.7H432.6V431.06H644.28V219.38ZM122,358.81,54.65,319.92,122,281ZM318.38,585l-38.89-67.36h77.78ZM281.7,122l38.88-67.35L359.47,122ZM513,356.39V278.62l67.35,38.89Z"/><path class="cls-2" d="M211.68,211.68H0V423.36H211.68v-.11a149.6,149.6,0,0,1,0-211.45Zm-86.6,153.26L42.35,317.19l82.73-47.77Z"/><path class="cls-3" d="M423.36,211.68V0H211.68V211.8a149.6,149.6,0,0,0,0,211.45v211.8H423.36V423.36H635V211.68Zm-106.2,381L269.41,510h95.52Zm-47.75-467.6,47.75-82.73,47.77,82.73ZM504.2,364.94V269.42l82.73,47.77Z"/></g></svg>