<?xml version="1.0" encoding="utf-8"?>
<!-- Generator: Adobe Illustrator 20.0.0, SVG Export Plug-In . SVG Version: 6.00 Build 0)  -->
<svg version="1.1" id="Layer_1" xmlns="http://www.w3.org/2000/svg" xmlns:xlink="http://www.w3.org/1999/xlink" x="0px" y="0px"
	 viewBox="0 0 273.5 135.6" style="enable-background:new 0 0 273.5 135.6;" xml:space="preserve">
<style type="text/css">
	.st0{fill:#FFFFFF;}
	.st1{fill:#969696;}
</style>
<rect width="273.5" height="135.6"/>
<g>
	<path class="st0" d="M35.4,42.5h-2.9v-14h-4.8v-2.8h12.4v2.8h-4.8V42.5z"/>
	<path class="st0" d="M43.3,25.7h2.9v16.8h-2.9V25.7z"/>
	<path class="st0" d="M62.8,42.5v-8.9c0-0.6,0-1.6,0.1-2c-0.2,0.6-0.5,1.5-0.8,2.1l-4.1,9.2L54,33.6c-0.3-0.6-0.6-1.4-0.8-2
		c0,0.5,0.1,1.4,0.1,2v8.9h-2.9V25.7h2.9l4.3,9.9c0.2,0.4,0.3,0.9,0.5,1.2c0.1-0.4,0.3-0.8,0.5-1.2l4.3-9.9h2.8v16.8H62.8z"/>
	<path class="st0" d="M69.8,25.7h10.9v2.7h-8.1v4.1h5v2.7h-5v4.6h8.6v2.7H69.8V25.7z"/>
</g>
<g>
	<path class="st0" d="M35.2,111l-2.1-7.6h-2.2v7.6h-2.3V94.9h4.8c0.6,0,1.2,0.1,1.7,0.3c0.5,0.2,1,0.5,1.3,0.9
		c0.4,0.4,0.7,0.8,0.9,1.4s0.3,1.1,0.3,1.8c0,1-0.2,1.8-0.6,2.4s-1,1.2-1.7,1.4l2.3,7.9H35.2z M35.3,99.2c0-0.6-0.2-1.1-0.6-1.5
		c-0.4-0.4-0.9-0.6-1.5-0.6h-2.4v4.1h2.4c0.7,0,1.2-0.2,1.5-0.5C35.2,100.4,35.3,99.9,35.3,99.2z"/>
	<path class="st0" d="M40.3,111V94.9h7.6v2.3h-5.3v4.1h3.3v2.2h-3.3v5.3h5.9v2.3H40.3z"/>
	<path class="st0" d="M59.5,111v-9l-3,9l-3-9v9h-2.3V94.9h2.3l3,9l3-9h2.3V111H59.5z"/>
	<path class="st0" d="M72,111l-1.1-4.4h-3.5l-1.1,4.4h-2.3l4-16.1h2.3l4,16.1H72z M69.2,99.7l-1.1,4.6h2.3L69.2,99.7z"/>
	<path class="st0" d="M76.5,111V94.9h2.3V111H76.5z"/>
	<path class="st0" d="M89.6,111l-5-10.8V111h-2.3V94.9h2.3l4.4,9.6v-9.6h2.3V111H89.6z"/>
	<path class="st0" d="M94.9,111V94.9h2.3V111H94.9z"/>
	<path class="st0" d="M108,111l-5-10.8V111h-2.3V94.9h2.3l4.4,9.6v-9.6h2.3V111H108z"/>
	<path class="st0" d="M121.8,107.9c-0.1,0.4-0.2,0.7-0.4,1.1c-0.3,0.7-0.8,1.3-1.4,1.7c-0.6,0.4-1.3,0.6-2.1,0.6
		c-1,0-1.8-0.2-2.5-0.7c-0.7-0.5-1.2-1.2-1.6-2.1c-0.3-0.6-0.5-1.4-0.6-2.4c-0.2-1-0.2-2.1-0.2-3.1c0-1.1,0.1-2.1,0.2-3
		c0.1-0.9,0.3-1.7,0.6-2.4c0.1-0.4,0.3-0.8,0.6-1.2c0.3-0.4,0.6-0.7,0.9-0.9c0.4-0.3,0.7-0.5,1.2-0.6c0.4-0.1,0.9-0.2,1.3-0.2
		c0.6,0,1.1,0.1,1.6,0.3c0.5,0.2,0.9,0.5,1.3,0.8c0.4,0.4,0.7,0.8,0.9,1.3c0.2,0.5,0.4,1.1,0.4,1.6h-2.3c0-0.5-0.2-1-0.6-1.3
		c-0.3-0.3-0.8-0.5-1.4-0.5c-0.8,0-1.4,0.4-1.8,1.2c-0.2,0.4-0.4,1-0.5,1.8c-0.1,0.8-0.2,1.7-0.2,2.7c0,0.7,0,1.4,0.1,2
		c0.1,0.7,0.1,1.3,0.3,2c0.2,0.8,0.5,1.4,0.9,1.8c0.4,0.4,0.9,0.6,1.5,0.6c1.2,0,1.8-0.8,1.8-2.5v-1.1h-1.8v-2.3h4.1v3.3
		C121.9,107.1,121.9,107.6,121.8,107.9z"/>
	<path class="st0" d="M133.6,97V111h-2.3V97h-2.9v-2.1h8.2V97H133.6z"/>
	<path class="st0" d="M145.4,111l-2.1-7.6h-2.2v7.6h-2.3V94.9h4.8c0.6,0,1.2,0.1,1.7,0.3c0.5,0.2,1,0.5,1.3,0.9
		c0.4,0.4,0.7,0.8,0.9,1.4s0.3,1.1,0.3,1.8c0,1-0.2,1.8-0.6,2.4s-1,1.2-1.7,1.4l2.3,7.9H145.4z M145.5,99.2c0-0.6-0.2-1.1-0.6-1.5
		c-0.4-0.4-0.9-0.6-1.5-0.6h-2.4v4.1h2.4c0.7,0,1.2-0.2,1.5-0.5C145.3,100.4,145.5,99.9,145.5,99.2z"/>
	<path class="st0" d="M159.5,107c0,0.3-0.1,0.5-0.1,0.7c0,0.2-0.1,0.4-0.2,0.6c-0.1,0.2-0.2,0.4-0.3,0.6c-0.4,0.7-0.9,1.2-1.6,1.6
		s-1.4,0.6-2.2,0.6c-0.8,0-1.6-0.2-2.3-0.6s-1.3-1-1.7-1.6c-0.1-0.2-0.2-0.4-0.3-0.6s-0.1-0.4-0.2-0.6c0-0.2-0.1-0.5-0.1-0.7
		c0-0.3,0-0.5,0-0.9V94.9h2.3v11.6c0,0.8,0.2,1.4,0.6,1.8s1,0.7,1.6,0.7c0.6,0,1.1-0.2,1.5-0.7c0.4-0.5,0.6-1.1,0.6-1.8V94.9h2.3
		v11.3C159.5,106.5,159.5,106.8,159.5,107z"/>
	<path class="st0" d="M169.4,99.2c-0.2-1.6-0.9-2.3-1.9-2.3c-0.5,0-0.9,0.1-1.2,0.3c-0.3,0.2-0.6,0.5-0.8,1c-0.2,0.4-0.3,1-0.4,1.7
		c-0.1,0.7-0.1,1.6-0.1,2.6c0,2.3,0.2,4,0.6,5c0.4,1,1.1,1.5,2.1,1.5c0.3,0,0.6-0.1,0.8-0.2s0.4-0.3,0.5-0.5s0.2-0.5,0.3-0.7
		c0-0.3,0.1-0.6,0.1-0.9h2.3c0,0.7-0.1,1.3-0.3,1.8c-0.2,0.6-0.5,1-0.8,1.5c-0.4,0.4-0.8,0.7-1.3,0.9s-1,0.3-1.6,0.3
		c-1.7,0-3-0.7-3.8-2.1c-0.8-1.4-1.2-3.6-1.2-6.6c0-2.6,0.4-4.6,1.2-6c0.8-1.3,2-2,3.6-2c0.7,0,1.3,0.1,1.8,0.4
		c0.5,0.3,1,0.7,1.4,1.2c0.3,0.4,0.5,0.8,0.7,1.2c0.1,0.4,0.3,1,0.3,1.7H169.4z"/>
	<path class="st0" d="M181.5,111l-2.8-7.8l-1.5,2.7v5.1h-2.3V94.9h2.3v6.4l3.7-6.4h2.7l-3.3,5.6l3.7,10.4H181.5z"/>
	<path class="st0" d="M194.8,106.6c0,0.7-0.1,1.3-0.3,1.8c-0.2,0.6-0.6,1.1-1,1.5s-0.9,0.7-1.4,1s-1.1,0.4-1.7,0.4
		c-0.7,0-1.3-0.1-1.9-0.4c-0.6-0.3-1-0.6-1.4-1.1s-0.7-1-0.9-1.6c-0.2-0.6-0.3-1.2-0.3-1.9h2.3c0,0.3,0,0.7,0.1,1
		c0.1,0.3,0.2,0.6,0.4,0.9c0.2,0.3,0.4,0.5,0.7,0.6c0.3,0.2,0.6,0.2,1,0.2c0.3,0,0.6-0.1,0.9-0.2c0.3-0.1,0.5-0.3,0.7-0.5
		c0.2-0.2,0.4-0.5,0.5-0.8s0.2-0.6,0.2-0.9c0-0.5-0.1-0.9-0.3-1.2c-0.2-0.4-0.5-0.7-1-1.1c-0.1-0.1-0.1-0.1-0.1-0.1
		c0,0,0-0.1-0.1-0.1c-0.1-0.1-0.3-0.2-0.7-0.5c-0.4-0.2-0.9-0.6-1.8-1.2c-0.7-0.4-1.1-1-1.5-1.6c-0.3-0.6-0.5-1.3-0.5-2
		c0-0.6,0.1-1.1,0.3-1.6c0.2-0.5,0.5-0.9,0.9-1.3c0.4-0.4,0.8-0.7,1.3-0.9s1-0.3,1.6-0.3c0.6,0,1.1,0.1,1.6,0.3
		c0.5,0.2,0.9,0.5,1.3,0.9c0.4,0.4,0.6,0.8,0.9,1.3c0.2,0.5,0.3,1.1,0.3,1.7h-2.2c0-0.6-0.2-1-0.6-1.3c-0.4-0.3-0.8-0.5-1.3-0.5
		c-0.5,0-1,0.2-1.3,0.5s-0.6,0.8-0.6,1.3c0,0.4,0.1,0.7,0.3,1c0.2,0.3,0.6,0.6,1.2,0.9c1.6,0.9,2.7,1.8,3.4,2.7
		C194.5,104.4,194.8,105.4,194.8,106.6z"/>
</g>
<rect x="29.2" y="69.1" class="st1" width="223.4" height="1.8"/>
</svg>
