<svg width="64" height="64" xmlns="http://www.w3.org/2000/svg" xmlns:svg="http://www.w3.org/2000/svg" xmlns:xlink="http://www.w3.org/1999/xlink">
 <!-- Created with SVG-edit - http://svg-edit.googlecode.com/ -->
 <defs>
  <symbol viewBox="0 0 500 487.46" id="svg_36" xmlns="http://www.w3.org/2000/svg" xmlns:xlink="http://www.w3.org/1999/xlink">
   <defs>
    <style>.cls-1,.cls-10,.cls-11,.cls-12,.cls-4,.cls-5,.cls-6,.cls-7,.cls-8,.cls-9{fill:none;}.cls-2{fill:#0d6861;}.cls-3{clip-path:url(#clip-path);}.cls-10,.cls-11,.cls-12,.cls-4,.cls-5,.cls-6,.cls-7,.cls-8,.cls-9{stroke:#008f6d;stroke-miterlimit:10;stroke-width:3px;}.cls-5{stroke-dasharray:15.58 15.58;}.cls-6{stroke-dasharray:15.25 15.25;}.cls-7{stroke-dasharray:14.39 14.39;}.cls-8{stroke-dasharray:15.58 15.58;}.cls-9{stroke-dasharray:14.39 14.39;}.cls-10{stroke-dasharray:14.88 14.88;}.cls-11{stroke-dasharray:14.88 14.88;}.cls-12{stroke-dasharray:11.76 11.76;}</style>
    <clipPath id="svg_35">
     <polygon id="svg_1" class="cls-1" points="250 0 49.52 96.55 0 313.49 138.74 487.46 203.57 487.46 250 294.03 296.43 487.46 361.26 487.46 500 313.49 450.48 96.55 250 0"/>
    </clipPath>
   </defs>
   <title>Forgetful Frog</title>
   <g id="svg_34">
    <polygon id="svg_2" class="cls-2" points="250 0 49.52 96.55 0 313.49 138.74 487.46 203.57 487.46 250 294.03 296.43 487.46 361.26 487.46 500 313.49 450.48 96.55 250 0"/>
    <g id="svg_3" class="cls-3">
     <line id="svg_4" class="cls-4" x1="250" y1="243.73" x2="243.95" y2="239.29"/>
     <line id="svg_5" class="cls-5" x1="231.39" y1="230.07" x2="61.84" y2="105.6"/>
     <line id="svg_6" class="cls-4" x1="55.56" y1="100.99" x2="49.52" y2="96.55"/>
     <line id="svg_7" class="cls-4" x1="250" x2="250" y2="7.5"/>
     <line id="svg_8" class="cls-6" x1="250" y1="22.75" x2="250" y2="228.61"/>
     <line id="svg_9" class="cls-4" x1="250" y1="236.23" x2="250" y2="243.73"/>
     <line id="svg_10" class="cls-4" x1="500" y1="313.49" x2="492.78" y2="311.47"/>
     <line id="svg_11" class="cls-7" x1="478.92" y1="307.61" x2="264.15" y2="247.68"/>
     <line id="svg_12" class="cls-4" x1="257.22" y1="245.75" x2="250" y2="243.73"/>
     <line id="svg_13" class="cls-4" x1="450.48" y1="96.55" x2="444.44" y2="100.99"/>
     <line id="svg_14" class="cls-8" x1="431.88" y1="110.21" x2="262.33" y2="234.68"/>
     <line id="svg_15" class="cls-4" x1="256.05" y1="239.29" x2="250" y2="243.73"/>
     <line id="svg_16" class="cls-4" y1="313.49" x2="7.22" y2="311.47"/>
     <line id="svg_17" class="cls-9" x1="21.08" y1="307.61" x2="235.85" y2="247.68"/>
     <line id="svg_18" class="cls-4" x1="242.78" y1="245.75" x2="250" y2="243.73"/>
     <line id="svg_19" class="cls-4" x1="138.74" y1="487.46" x2="141.85" y2="480.64"/>
     <line id="svg_20" class="cls-10" x1="148.03" y1="467.11" x2="243.8" y2="257.32"/>
     <line id="svg_21" class="cls-4" x1="246.89" y1="250.55" x2="250" y2="243.73"/>
     <line id="svg_22" class="cls-4" x1="361.26" y1="487.46" x2="358.15" y2="480.64"/>
     <line id="svg_23" class="cls-11" x1="351.97" y1="467.11" x2="256.2" y2="257.32"/>
     <line id="svg_24" class="cls-4" x1="253.11" y1="250.55" x2="250" y2="243.73"/>
     <line id="svg_25" class="cls-4" x1="250" y1="294.03" x2="250" y2="286.53"/>
     <line id="svg_26" class="cls-12" x1="250" y1="274.76" x2="250" y2="257.11"/>
     <line id="svg_27" class="cls-4" x1="250" y1="251.23" x2="250" y2="243.73"/>
    </g>
   </g>
  </symbol>
 </defs>
 <g>
  <title>Layer 1</title>
  <g id="svg_33"/>
  <g id="svg_38"/>
  <use id="svg_37" xlink:href="#svg_36" transform="matrix(0.9605693602434683,0,0,0.960561163090777,1.001779317855835,1.4879464984360091) " y="0" x="0"/>
 </g>
</svg>