<?xml version="1.0" standalone="no"?>
<!DOCTYPE svg PUBLIC "-//W3C//DTD SVG 20010904//EN"
 "http://www.w3.org/TR/2001/REC-SVG-20010904/DTD/svg10.dtd">
<svg version="1.0" xmlns="http://www.w3.org/2000/svg"
 width="1280.000000pt" height="1014.000000pt" viewBox="0 0 1280.000000 1014.000000"
 preserveAspectRatio="xMidYMid meet">
<metadata>
Created by potrace 1.15, written by Peter Selinger 2001-2017
</metadata>
<g transform="translate(0.000000,1014.000000) scale(0.100000,-0.100000)"
fill="#000000" stroke="none">
<path d="M7747 10073 c-7 -66 -9 -213 -4 -213 1 -1 92 -5 202 -10 954 -43
1838 -350 2598 -902 1087 -789 1791 -1994 1942 -3323 32 -284 37 -750 10 -995
-68 -615 -206 -1102 -456 -1620 -657 -1356 -1901 -2319 -3374 -2609 -264 -52
-631 -91 -859 -91 l-96 0 0 -140 0 -140 134 0 c503 0 1137 119 1653 311 1254
466 2292 1429 2843 2639 719 1578 586 3406 -352 4850 -822 1267 -2161 2100
-3653 2274 -140 17 -422 36 -521 36 l-61 0 -6 -67z"/>
<path d="M4330 8409 l-1535 -1648 -1397 0 -1398 -1 0 -1710 0 -1710 1393 -1
1392 -1 1540 -1665 1540 -1665 3 2517 c1 1384 1 3645 0 5024 l-3 2508 -1535
-1648z"/>
<path d="M7390 8396 c0 -40 -3 -87 -6 -104 l-6 -30 128 -7 c479 -24 882 -126
1289 -325 1005 -491 1674 -1457 1785 -2579 15 -152 12 -470 -5 -639 -128
-1223 -958 -2274 -2123 -2687 -284 -100 -569 -156 -904 -177 l-188 -12 0 -103
0 -103 88 0 c116 0 366 24 517 50 832 142 1591 596 2114 1265 654 837 882
1925 620 2960 -72 280 -207 609 -355 862 -487 832 -1294 1420 -2224 1622 -213
47 -493 81 -662 81 l-68 0 0 -74z"/>
<path d="M7040 6662 l0 -72 48 0 c188 0 452 -65 648 -161 228 -111 479 -328
613 -529 331 -497 371 -1090 109 -1615 -138 -276 -368 -517 -643 -674 -210
-120 -496 -201 -712 -201 l-73 0 0 -73 0 -74 78 4 c464 24 859 204 1183 540
255 264 416 600 464 970 87 660 -215 1313 -775 1676 -247 160 -545 259 -827
274 l-113 6 0 -71z"/>
</g>
</svg>
